G04*
G04 #@! TF.GenerationSoftware,Altium Limited,Altium Designer,23.5.1 (21)*
G04*
G04 Layer_Physical_Order=2*
G04 Layer_Color=16711680*
%FSLAX25Y25*%
%MOIN*%
G70*
G04*
G04 #@! TF.SameCoordinates,ADC293D8-078E-43BE-A9BC-F2B81A3AF959*
G04*
G04*
G04 #@! TF.FilePolarity,Positive*
G04*
G01*
G75*
%ADD12C,0.01500*%
%ADD13C,0.05000*%
%ADD14R,0.13780X0.01181*%
G36*
X324920Y66442D02*
X325250Y66221D01*
X325641Y66143D01*
X336938D01*
X337295Y65799D01*
Y64709D01*
X345185D01*
Y63709D01*
X337295D01*
Y63311D01*
X332400D01*
X331990Y63229D01*
X331643Y62997D01*
X330316Y61671D01*
X241774D01*
X241677Y61905D01*
X241612Y62171D01*
X242061Y62949D01*
X242289Y63800D01*
X235311D01*
X235539Y62949D01*
X235988Y62171D01*
X235923Y61905D01*
X235826Y61671D01*
X221112D01*
X221109Y61681D01*
X220741Y62319D01*
X220219Y62841D01*
X219581Y63209D01*
X218869Y63400D01*
X218131D01*
X217419Y63209D01*
X216781Y62841D01*
X216259Y62319D01*
X215891Y61681D01*
X215700Y60969D01*
Y60231D01*
X215891Y59519D01*
X216259Y58881D01*
X216781Y58359D01*
X217419Y57991D01*
X217495Y57971D01*
X217429Y57471D01*
X212712D01*
X212709Y57481D01*
X212341Y58119D01*
X211819Y58641D01*
X211181Y59009D01*
X210469Y59200D01*
X209731D01*
X209019Y59009D01*
X208381Y58641D01*
X207859Y58119D01*
X207491Y57481D01*
X207300Y56769D01*
Y56031D01*
X207491Y55319D01*
X207859Y54681D01*
X208170Y54371D01*
X207962Y53871D01*
X92110D01*
X87770Y58210D01*
X87776Y58219D01*
X87967Y58931D01*
Y59669D01*
X87776Y60381D01*
X87407Y61019D01*
X86886Y61541D01*
X86247Y61909D01*
X85535Y62100D01*
X84798D01*
X84086Y61909D01*
X83447Y61541D01*
X82926Y61019D01*
X82557Y60381D01*
X82367Y59669D01*
Y58931D01*
X82557Y58219D01*
X82926Y57581D01*
X83447Y57059D01*
X84086Y56691D01*
X84798Y56500D01*
X85535D01*
X86247Y56691D01*
X86256Y56696D01*
X90910Y52043D01*
X91018Y51971D01*
X90866Y51471D01*
X40443D01*
X35504Y56410D01*
X35509Y56419D01*
X35700Y57131D01*
Y57869D01*
X35509Y58581D01*
X35141Y59219D01*
X34619Y59741D01*
X33981Y60109D01*
X33269Y60300D01*
X32531D01*
X31819Y60109D01*
X31181Y59741D01*
X30659Y59219D01*
X30291Y58581D01*
X30100Y57869D01*
Y57131D01*
X30291Y56419D01*
X30659Y55781D01*
X31181Y55259D01*
X31819Y54891D01*
X32531Y54700D01*
X33269D01*
X33981Y54891D01*
X33990Y54896D01*
X39243Y49643D01*
X39243Y49643D01*
X39590Y49411D01*
X40000Y49329D01*
X40000Y49329D01*
X336100D01*
X336510Y49411D01*
X336857Y49643D01*
X337495Y50281D01*
X337995Y50074D01*
Y49539D01*
X337995D01*
Y49351D01*
X337995D01*
Y47570D01*
X337995D01*
Y47383D01*
X337995D01*
Y45602D01*
X337995D01*
Y45414D01*
X337995D01*
Y43633D01*
X337995D01*
Y43446D01*
X337995D01*
Y41665D01*
X351393D01*
Y41071D01*
X351231Y40623D01*
X325641D01*
X325250Y40546D01*
X324920Y40325D01*
X324565Y39970D01*
X1070D01*
Y66797D01*
X235694D01*
X235911Y66297D01*
X235539Y65651D01*
X235311Y64800D01*
X242289D01*
X242061Y65651D01*
X241688Y66297D01*
X241906Y66797D01*
X324565D01*
X324920Y66442D01*
D02*
G37*
G36*
X333834Y60670D02*
X330634Y57471D01*
X219571D01*
X219505Y57971D01*
X219581Y57991D01*
X220219Y58359D01*
X220741Y58881D01*
X221109Y59519D01*
X221112Y59529D01*
X330760D01*
X331170Y59611D01*
X331517Y59843D01*
X332843Y61170D01*
X333627D01*
X333834Y60670D01*
D02*
G37*
G36*
X330650Y54829D02*
X329691Y53871D01*
X212238D01*
X212030Y54371D01*
X212341Y54681D01*
X212709Y55319D01*
X212712Y55329D01*
X330443D01*
X330650Y54829D01*
D02*
G37*
%LPC*%
G36*
X227869Y48300D02*
X227131D01*
X226419Y48109D01*
X225781Y47741D01*
X225259Y47219D01*
X224891Y46581D01*
X224700Y45869D01*
Y45131D01*
X224891Y44419D01*
X225259Y43781D01*
X225781Y43259D01*
X226419Y42891D01*
X227131Y42700D01*
X227869D01*
X228581Y42891D01*
X229219Y43259D01*
X229741Y43781D01*
X230109Y44419D01*
X230300Y45131D01*
Y45869D01*
X230109Y46581D01*
X229741Y47219D01*
X229219Y47741D01*
X228581Y48109D01*
X227869Y48300D01*
D02*
G37*
%LPD*%
D12*
X334950Y60272D02*
X345185D01*
X331078Y56400D02*
X334950Y60272D01*
X210100Y56400D02*
X331078D01*
X85167Y59300D02*
X91667Y52800D01*
X330134D01*
X335637Y58303D01*
X345185D01*
X337666Y56335D02*
X345185D01*
X337134Y55803D02*
X337666Y56335D01*
X337134Y51434D02*
Y55803D01*
X336100Y50400D02*
X337134Y51434D01*
X40000Y50400D02*
X336100D01*
X32900Y57500D02*
X40000Y50400D01*
X332400Y62240D02*
X345185D01*
X330760Y60600D02*
X332400Y62240D01*
X218500Y60600D02*
X330760D01*
D13*
X238800Y64300D02*
D03*
X210100Y56400D02*
D03*
X85167Y59300D02*
D03*
X32900Y57500D02*
D03*
X218500Y60600D02*
D03*
X227500Y45500D02*
D03*
D14*
X345185Y60272D02*
D03*
Y58303D02*
D03*
Y56335D02*
D03*
Y54366D02*
D03*
Y52398D02*
D03*
Y50429D02*
D03*
Y48461D02*
D03*
Y46492D02*
D03*
Y44524D02*
D03*
Y42555D02*
D03*
Y64209D02*
D03*
Y62240D02*
D03*
M02*
